<?xml version="1.0" encoding="UTF-8" standalone="no"?>
<!-- Created with Inkscape (http://www.inkscape.org/) -->

<svg
   xmlns:dc="http://purl.org/dc/elements/1.1/"
   xmlns:cc="http://creativecommons.org/ns#"
   xmlns:rdf="http://www.w3.org/1999/02/22-rdf-syntax-ns#"
   xmlns:svg="http://www.w3.org/2000/svg"
   xmlns="http://www.w3.org/2000/svg"
   xmlns:sodipodi="http://sodipodi.sourceforge.net/DTD/sodipodi-0.dtd"
   xmlns:inkscape="http://www.inkscape.org/namespaces/inkscape"
   width="210mm"
   height="297mm"
   id="svg2"
   version="1.1"
   inkscape:version="0.48.3.1 r9886"
   sodipodi:docname="spin_b0.pdf">
  <defs
     id="defs4">
    <marker
       inkscape:stockid="Arrow1Lend"
       orient="auto"
       refY="0.0"
       refX="0.0"
       id="Arrow1Lend"
       style="overflow:visible;">
      <path
         id="path4266"
         d="M 0.0,0.0 L 5.0,-5.0 L -12.5,0.0 L 5.0,5.0 L 0.0,0.0 z "
         style="fill-rule:evenodd;stroke:#000000;stroke-width:1.0pt;"
         transform="scale(0.8) rotate(180) translate(12.5,0)" />
    </marker>
    <inkscape:path-effect
       effect="spiro"
       id="path-effect3489"
       is_visible="true" />
    <clipPath
       id="clipPath3020"
       clipPathUnits="userSpaceOnUse">
      <path
         id="path3022"
         d="m 0,0 2880,0 0,2290 L 0,2290 0,0 z" />
    </clipPath>
    <marker
       inkscape:stockid="Arrow1Lend"
       orient="auto"
       refY="0"
       refX="0"
       id="Arrow1Lend-7"
       style="overflow:visible">
      <path
         inkscape:connector-curvature="0"
         id="path4266-7"
         d="M 0,0 5,-5 -12.5,0 5,5 0,0 z"
         style="fill-rule:evenodd;stroke:#000000;stroke-width:1pt"
         transform="matrix(-0.8,0,0,-0.8,-10,0)" />
    </marker>
    <inkscape:path-effect
       effect="spiro"
       id="path-effect3489-1"
       is_visible="true" />
    <marker
       inkscape:stockid="Arrow1Lend"
       orient="auto"
       refY="0"
       refX="0"
       id="Arrow1Lend-1"
       style="overflow:visible">
      <path
         inkscape:connector-curvature="0"
         id="path4266-6"
         d="M 0,0 5,-5 -12.5,0 5,5 0,0 z"
         style="fill-rule:evenodd;stroke:#000000;stroke-width:1pt"
         transform="matrix(-0.8,0,0,-0.8,-10,0)" />
    </marker>
    <inkscape:path-effect
       effect="spiro"
       id="path-effect3489-9"
       is_visible="true" />
    <marker
       inkscape:stockid="Arrow1Lend"
       orient="auto"
       refY="0"
       refX="0"
       id="Arrow1Lend-70"
       style="overflow:visible">
      <path
         inkscape:connector-curvature="0"
         id="path4266-66"
         d="M 0,0 5,-5 -12.5,0 5,5 0,0 z"
         style="fill-rule:evenodd;stroke:#000000;stroke-width:1pt"
         transform="matrix(-0.8,0,0,-0.8,-10,0)" />
    </marker>
    <inkscape:path-effect
       effect="spiro"
       id="path-effect3489-3"
       is_visible="true" />
    <marker
       inkscape:stockid="Arrow1Lend"
       orient="auto"
       refY="0"
       refX="0"
       id="Arrow1Lend-9"
       style="overflow:visible">
      <path
         inkscape:connector-curvature="0"
         id="path4266-8"
         d="M 0,0 5,-5 -12.5,0 5,5 0,0 z"
         style="fill-rule:evenodd;stroke:#000000;stroke-width:1pt"
         transform="matrix(-0.8,0,0,-0.8,-10,0)" />
    </marker>
    <inkscape:path-effect
       effect="spiro"
       id="path-effect3489-17"
       is_visible="true" />
    <marker
       inkscape:stockid="Arrow1Lend"
       orient="auto"
       refY="0"
       refX="0"
       id="Arrow1Lend-5"
       style="overflow:visible">
      <path
         inkscape:connector-curvature="0"
         id="path4266-668"
         d="M 0,0 5,-5 -12.5,0 5,5 0,0 z"
         style="fill-rule:evenodd;stroke:#000000;stroke-width:1pt"
         transform="matrix(-0.8,0,0,-0.8,-10,0)" />
    </marker>
    <inkscape:path-effect
       effect="spiro"
       id="path-effect3489-2"
       is_visible="true" />
  </defs>
  <sodipodi:namedview
     id="base"
     pagecolor="#ffffff"
     bordercolor="#666666"
     borderopacity="1.0"
     inkscape:pageopacity="0.0"
     inkscape:pageshadow="2"
     inkscape:zoom="0.98994949"
     inkscape:cx="217.68291"
     inkscape:cy="750.19795"
     inkscape:document-units="px"
     inkscape:current-layer="layer1"
     showgrid="false"
     inkscape:window-width="1615"
     inkscape:window-height="1026"
     inkscape:window-x="65"
     inkscape:window-y="24"
     inkscape:window-maximized="1" />
  <metadata
     id="metadata7">
    <rdf:RDF>
      <cc:Work
         rdf:about="">
        <dc:format>image/svg+xml</dc:format>
        <dc:type
           rdf:resource="http://purl.org/dc/dcmitype/StillImage" />
        <dc:title></dc:title>
      </cc:Work>
    </rdf:RDF>
  </metadata>
  <g
     inkscape:label="Calque 1"
     inkscape:groupmode="layer"
     id="layer1">
    <g
       id="g4895">
      <path
         inkscape:connector-curvature="0"
         inkscape:original-d="m 478.81231,205.85434 c 0,89.90358 0,127.27923 0,127.27923"
         inkscape:path-effect="#path-effect3489-3"
         id="path3487-2"
         d="m 478.81231,205.85434 0,127.27923"
         style="fill:none;stroke:#000000;stroke-width:1px;stroke-linecap:butt;stroke-linejoin:miter;stroke-opacity:1;marker-end:url(#Arrow1Lend)" />
      <path
         inkscape:connector-curvature="0"
         inkscape:original-d="m 394.96965,349.29602 c 0,-89.90359 0,-127.27923 0,-127.27923"
         inkscape:path-effect="#path-effect3489-17"
         id="path3487-35"
         d="m 394.96965,349.29602 0,-127.27923"
         style="fill:none;stroke:#000000;stroke-width:1px;stroke-linecap:butt;stroke-linejoin:miter;stroke-opacity:1;marker-end:url(#Arrow1Lend)" />
      <path
         inkscape:connector-curvature="0"
         inkscape:original-d="m 291.73891,229.08786 c 0,89.90359 0,127.27923 0,127.27923"
         inkscape:path-effect="#path-effect3489-2"
         id="path3487-28"
         d="m 291.73891,229.08786 0,127.27923"
         style="fill:none;stroke:#000000;stroke-width:1px;stroke-linecap:butt;stroke-linejoin:miter;stroke-opacity:1;marker-end:url(#Arrow1Lend)" />
      <path
         inkscape:connector-curvature="0"
         inkscape:original-d="m 282.39652,199.79344 c 0,-89.90358 0,-127.279227 0,-127.279227"
         inkscape:path-effect="#path-effect3489"
         id="path3487"
         d="m 282.39652,199.79344 0,-127.279227"
         style="fill:none;stroke:#000000;stroke-width:1px;stroke-linecap:butt;stroke-linejoin:miter;stroke-opacity:1;marker-end:url(#Arrow1Lend)" />
      <g
         transform="translate(0,-1.2684493)"
         id="g4746">
        <g
           transform="matrix(0.06549338,0.05953762,-0.06024887,0.06472012,151.91799,348.43914)"
           id="g3038">
          <path
             id="path3040"
             style="fill:none;stroke:#0000ff;stroke-width:25.51329994;stroke-linecap:round;stroke-linejoin:round;stroke-miterlimit:4;stroke-opacity:1;stroke-dasharray:none"
             d="m -195.544,-2758.63 c -10e-4,192.24 -156.66,348.13 -349.939,348.09 -193.304,0.02 -349.959,-155.86 -349.962,-348.09 -0.04,-192.27 156.679,-348.13 349.939,-348.09 193.286,-0.06 349.96,155.84 349.962,348.09 z"
             inkscape:connector-curvature="0" />
        </g>
        <g
           id="g4703">
          <path
             inkscape:connector-curvature="0"
             d="m 305.31674,158.25789 c -11.5825,12.44125 -31.23612,13.2025 -43.89237,1.69375 -12.66013,-11.50875 -13.53026,-30.9225 -1.94775,-43.36375 11.5815,-12.44625 31.23512,-13.20375 43.89137,-1.695 12.66125,11.505 13.53,30.92375 1.94875,43.365 z"
             style="fill:#0000ff;fill-opacity:1;fill-rule:nonzero;stroke:none"
             id="path3036" />
          <g
             id="g3042"
             transform="matrix(1.25,0,0,-1.25,151.91799,348.43914)">
            <text
               transform="matrix(1,0,0,-0.98819112,92.3031,161.436)"
               id="text3044">
              <tspan
                 style="font-size:14.5386858px;font-variant:normal;font-weight:bold;writing-mode:lr-tb;fill:#000000;fill-opacity:1;fill-rule:nonzero;stroke:none;font-family:DejaVu Sans;-inkscape-font-specification:DejaVuSans-Bold"
                 x="0"
                 y="0"
                 id="tspan3046">H</tspan>
              <tspan
                 style="font-size:14.5386858px;font-variant:normal;font-weight:bold;writing-mode:lr-tb;fill:#000000;fill-opacity:1;fill-rule:nonzero;stroke:none;font-family:DejaVu Sans;-inkscape-font-specification:DejaVuSans-Bold"
                 x="12.182056"
                 y="-5.8155551"
                 id="tspan3048">+</tspan>
            </text>
          </g>
        </g>
      </g>
      <path
         inkscape:connector-curvature="0"
         d="m 222.23536,97.05039 0,251.3785"
         style="fill:none;stroke:#000000;stroke-width:3;stroke-linecap:butt;stroke-linejoin:miter;stroke-miterlimit:4;stroke-opacity:1;stroke-dasharray:none"
         id="path3050" />
      <path
         inkscape:connector-curvature="0"
         d="m 222.23536,95.85039 10.96638,10.97125 -10.96638,-38.3975 -10.97112,38.3975 10.97112,-10.97125 z"
         style="fill:#000000;fill-opacity:1;fill-rule:evenodd;stroke:none"
         id="path3052" />
      <path
         inkscape:connector-curvature="0"
         d="m 222.23536,95.85039 10.96638,10.9725 -10.96638,-38.39875 -10.97112,38.39875 10.97112,-10.9725 z"
         style="fill:none;stroke:#000000;stroke-width:3;stroke-linecap:butt;stroke-linejoin:miter;stroke-miterlimit:4;stroke-opacity:1;stroke-dasharray:none"
         id="path3054" />
      <path
         inkscape:connector-curvature="0"
         d="m 158.16799,214.90789 -0.0488,0.19 -0.0435,0.18125 -0.0542,0.17125 -0.0435,0.16125 -0.04,0.16125 -0.10742,0.2725 -0.0527,0.1275 -0.0537,0.1175 -0.0635,0.11625 -0.0737,0.1075 -0.0776,0.0975 -0.0737,0.0937 -0.0928,0.0725 -0.0972,0.0887 -0.11768,0.0625 -0.11767,0.0738 -0.27344,0.1075 -0.16016,0.0538 -0.17139,0.0387 -0.0972,0.025 -0.0928,0.009 -0.0986,0.02 -0.10741,0.025 -0.10254,0.009 -0.10742,0.01 -0.11621,0.01 -0.12744,0.025 -0.11768,0.009 -0.13623,0.01 -0.12744,0 -0.14111,0.01 -0.14649,0.01 -0.15136,0 -0.146,0.01 -0.16163,0 -0.1709,0.0137 -0.9038,0 c -0.90235,0 -1.43506,0 -1.43506,1.06 0,0.58625 0.48877,0.58625 1.43506,0.58625 l 18.90231,0 c 8.36375,0 14.61376,-6.24 14.61376,-11.43625 0,-3.80875 -3.07126,-6.88 -8.20363,-7.465 5.51763,-1.00625 11.07475,-4.9325 11.07475,-9.97125 0,-3.91125 -3.50588,-7.3 -9.86325,-7.3 l -0.73288,1.64625 c 4.65375,0 5.76263,3.115 5.76263,5.44375 0,4.66375 -4.55125,9.7025 -11.00637,9.7025 l -7.72501,0 -0.32237,1.1625 10.005,0 c 5.08387,0 6.08875,3.92 6.08875,6.19625 0,5.24875 -4.7065,10.375 -10.9565,10.375 l -7.20701,0 c -0.73292,0 -0.8501,0 -1.15772,-0.0437 -0.53125,-0.0538 -0.68262,-0.1075 -0.68262,-0.5325 0,-0.14625 0,-0.26375 0.26757,-1.21 l 3.64253,-14.785 0.32237,-1.1625 3.27138,-13.135 c 0.47862,-1.85 0.57625,-2.01125 2.87112,-2.01125 l 6.82625,0 0.73288,-1.64625 -17.78273,0 c -1.00147,0 -1.5337,0 -1.5337,1.06 0,0.58625 0.46875,0.58625 1.47999,0.58625 0.0923,0 1.1123,0 2.00634,0.0975 0.94723,0.1175 1.42622,0.17 1.42622,0.84875 0,0.21 -0.0439,0.38125 -0.21525,1.01125 l -7.08987,28.4325 z"
         style="fill:#000000;fill-opacity:1;fill-rule:nonzero;stroke:none"
         id="path3056" />
      <path
         inkscape:connector-curvature="0"
         d="m 208.99324,215.14289 0,-0.7525 -0.024,-0.7225 -0.0298,-0.70375 -0.044,-0.6825 -0.0639,-0.655 -0.0724,-0.64 -0.0976,-0.605 -0.11712,-0.59625 -0.13775,-0.585 -0.16113,-0.56125 -0.18012,-0.5425 -0.20025,-0.5325 -0.22463,-0.5225 -0.25387,-0.5075 -0.27875,-0.5025 -0.146,-0.245 -0.16163,-0.24375 c -1.1475,-1.70875 -3.43212,-3.18875 -6.41112,-3.18875 l 0,1.045 c 2.01262,0 3.9365,1.21125 4.60487,3.36875 0.59625,1.9975 0.62988,4.66375 0.62988,7.89625 0,2.73375 0,5.47375 -0.4785,7.8025 -0.7475,3.369 -3.25625,4.18975 -4.75625,4.18975 -1.6885,0 -3.94975,-1.001 -4.69638,-4.0385 -0.5185,-2.1825 -0.5185,-5.22 -0.5185,-7.95375 0,-2.71 0,-5.5375 0.55225,-7.55875 0.77638,-2.92 3.15375,-3.70625 4.66263,-3.70625 l 0,-1.045 c -8.58888,0 -8.58888,10.1075 -8.58888,12.78875 0,2.65625 0,12.55363 8.58888,12.55363 8.604,0 8.604,-9.89738 8.604,-12.55363 z"
         style="fill:#000000;fill-opacity:1;fill-rule:nonzero;stroke:none"
         id="path3058" />
      <g
         transform="translate(0,15.635839)"
         id="g4785">
        <g
           id="g4737">
          <path
             inkscape:connector-curvature="0"
             d="m 315.65299,256.25551 c -12.085,-12.44137 -32.5875,-13.19774 -45.795,-1.69387 -13.2085,11.50887 -14.12112,30.92237 -2.03125,43.36388 12.085,12.44137 32.5875,13.20362 45.795,1.69475 13.20875,-11.50338 14.11625,-30.91838 2.03125,-43.36476 z"
             style="fill:#0000ff;fill-opacity:1;fill-rule:nonzero;stroke:none"
             id="path3060" />
          <g
             id="g3062"
             transform="matrix(0.06687838,-0.0582635,-0.06152312,-0.063335,151.91799,348.43914)">
            <path
               inkscape:connector-curvature="0"
               d="m 2051.27,-431.539 c 0.02,196.435 -160.09,355.6635 -357.55,355.6794 -197.52,-0.0155 -357.65,-159.2434 -357.61,-355.6984 0,-196.438 160.05,-355.701 357.57,-355.682 197.47,-0.02 357.56,159.225 357.59,355.701 z"
               style="fill:none;stroke:#0000ff;stroke-width:25.52230072;stroke-linecap:round;stroke-linejoin:round;stroke-miterlimit:4;stroke-opacity:1;stroke-dasharray:none"
               id="path3064" />
          </g>
          <g
             id="g3066"
             transform="matrix(1.25,0,0,-1.25,151.91799,348.43914)">
            <text
               transform="matrix(1,0,0,-0.94701454,99.2531,49.7008)"
               id="text3068">
              <tspan
                 style="font-size:15.16988373px;font-variant:normal;font-weight:bold;writing-mode:lr-tb;fill:#000000;fill-opacity:1;fill-rule:nonzero;stroke:none;font-family:DejaVu Sans;-inkscape-font-specification:DejaVuSans-Bold"
                 x="0"
                 y="0"
                 id="tspan3070">H</tspan>
              <tspan
                 style="font-size:15.16988373px;font-variant:normal;font-weight:bold;writing-mode:lr-tb;fill:#000000;fill-opacity:1;fill-rule:nonzero;stroke:none;font-family:DejaVu Sans;-inkscape-font-specification:DejaVuSans-Bold"
                 x="12.710576"
                 y="-6.0679955"
                 id="tspan3072">+</tspan>
            </text>
          </g>
        </g>
      </g>
      <g
         id="g4776">
        <path
           id="path3080"
           style="fill:#0000ff;fill-opacity:1;fill-rule:nonzero;stroke:none"
           d="m 374.68674,201.79289 c -11.5825,12.44125 -31.235,13.19875 -43.89125,1.69375 -12.66125,-11.50875 -13.53125,-30.9225 -1.94875,-43.36375 11.58625,-12.44625 31.235,-13.2025 43.89625,-1.69875 12.65625,11.50875 13.525,30.9225 1.94375,43.36875 z"
           inkscape:connector-curvature="0" />
        <g
           transform="matrix(0.06549338,0.05953762,-0.06024887,0.06472012,151.91799,348.43914)"
           id="g3082">
          <path
             id="path3084"
             style="fill:none;stroke:#0000ff;stroke-width:25.51329994;stroke-linecap:round;stroke-linejoin:round;stroke-miterlimit:4;stroke-opacity:1;stroke-dasharray:none"
             d="m 713.327,-2922.06 c 0.003,192.23 -156.717,348.09 -349.939,348.1 -193.324,0.01 -349.9638,-155.85 -349.9625,-348.08 2e-4,-192.31 156.6595,-348.13 349.9425,-348.19 193.263,0.04 349.919,155.9 349.959,348.17 z"
             inkscape:connector-curvature="0" />
        </g>
        <g
           transform="matrix(1.25,0,0,-1.25,151.91799,348.43914)"
           id="g3086">
          <text
             id="text3088"
             transform="matrix(1,0,0,-0.98819112,147.8,126.609)">
            <tspan
               id="tspan3090"
               y="0"
               x="0"
               style="font-size:14.5386858px;font-variant:normal;font-weight:bold;writing-mode:lr-tb;fill:#000000;fill-opacity:1;fill-rule:nonzero;stroke:none;font-family:DejaVu Sans;-inkscape-font-specification:DejaVuSans-Bold">H</tspan>
            <tspan
               id="tspan3092"
               y="-5.8155551"
               x="12.181652"
               style="font-size:14.5386858px;font-variant:normal;font-weight:bold;writing-mode:lr-tb;fill:#000000;fill-opacity:1;fill-rule:nonzero;stroke:none;font-family:DejaVu Sans;-inkscape-font-specification:DejaVuSans-Bold">+</tspan>
          </text>
        </g>
      </g>
      <g
         id="g4795">
        <g
           id="g4728">
          <path
             inkscape:connector-curvature="0"
             d="m 419.13424,307.85814 c -11.58125,12.44087 -31.235,13.20213 -43.89125,1.69325 -12.66125,-11.50875 -13.53,-30.92225 -1.9475,-43.36375 11.58125,-12.44237 31.235,-13.20363 43.89125,-1.69475 12.66125,11.50387 13.53,30.92237 1.9475,43.36525 z"
             style="fill:#0000ff;fill-opacity:1;fill-rule:nonzero;stroke:none"
             id="path3100" />
          <g
             id="g3102"
             transform="matrix(0.06549338,0.05953762,-0.06024887,0.06472012,151.91799,348.43914)">
            <path
               inkscape:connector-curvature="0"
               d="m 1897.48,-2372.58 c -0.01,192.25 -156.68,348.14 -349.95,348.11 -193.3,0.02 -349.96,-155.86 -349.96,-348.09 0,-192.23 156.68,-348.13 349.94,-348.11 193.29,-0.03 349.96,155.86 349.97,348.09 z"
               style="fill:none;stroke:#0000ff;stroke-width:25.51329994;stroke-linecap:round;stroke-linejoin:round;stroke-miterlimit:4;stroke-opacity:1;stroke-dasharray:none"
               id="path3104" />
          </g>
          <g
             id="g3106"
             transform="matrix(1.25,0,0,-1.25,151.91799,348.43914)">
            <text
               transform="matrix(1,0,0,-0.98819112,183.358,41.7563)"
               id="text3108">
              <tspan
                 style="font-size:14.5386858px;font-variant:normal;font-weight:bold;writing-mode:lr-tb;fill:#000000;fill-opacity:1;fill-rule:nonzero;stroke:none;font-family:DejaVu Sans;-inkscape-font-specification:DejaVuSans-Bold"
                 x="0"
                 y="0"
                 id="tspan3110">H</tspan>
              <tspan
                 style="font-size:14.5386858px;font-variant:normal;font-weight:bold;writing-mode:lr-tb;fill:#000000;fill-opacity:1;fill-rule:nonzero;stroke:none;font-family:DejaVu Sans;-inkscape-font-specification:DejaVuSans-Bold"
                 x="12.181652"
                 y="-5.8155551"
                 id="tspan3112">+</tspan>
            </text>
          </g>
        </g>
      </g>
      <g
         id="g4756">
        <g
           id="g4710">
          <path
             inkscape:connector-curvature="0"
             d="m 452.82174,90.82664 c -12.085,-12.4425 -32.58875,-13.19875 -45.79625,-1.695 -13.2075,11.50875 -14.12125,30.9225 -2.03125,43.36375 12.085,12.4425 32.5875,13.19875 45.79625,1.695 13.2075,-11.50875 14.11625,-30.9225 2.03125,-43.36375 z"
             style="fill:#0000ff;fill-opacity:1;fill-rule:nonzero;stroke:none"
             id="path3120" />
          <g
             id="g3122"
             transform="matrix(0.06687838,-0.0582635,-0.06152312,-0.063335,151.91799,348.43914)">
            <path
               inkscape:connector-curvature="0"
               d="m 4463.63,-38.7368 c 0,196.4378 -160.1,355.6628 -357.57,355.6818 -197.5,-0.018 -357.64,-159.243 -357.61,-355.7018 0,-196.4382 160.11,-355.6622 357.57,-355.6822 197.51,-10e-4 357.59,159.263 357.61,355.7022 z"
               style="fill:none;stroke:#0000ff;stroke-width:25.52230072;stroke-linecap:round;stroke-linejoin:round;stroke-miterlimit:4;stroke-opacity:1;stroke-dasharray:none"
               id="path3124" />
          </g>
          <g
             id="g3126"
             transform="matrix(1.25,0,0,-1.25,151.91799,348.43914)">
            <text
               transform="matrix(1,0,0,-0.94701454,208.988,182.046)"
               id="text3128">
              <tspan
                 style="font-size:15.16988373px;font-variant:normal;font-weight:bold;writing-mode:lr-tb;fill:#000000;fill-opacity:1;fill-rule:nonzero;stroke:none;font-family:DejaVu Sans;-inkscape-font-specification:DejaVuSans-Bold"
                 x="0"
                 y="0"
                 id="tspan3130">H</tspan>
              <tspan
                 style="font-size:15.16988373px;font-variant:normal;font-weight:bold;writing-mode:lr-tb;fill:#000000;fill-opacity:1;fill-rule:nonzero;stroke:none;font-family:DejaVu Sans;-inkscape-font-specification:DejaVuSans-Bold"
                 x="12.710576"
                 y="-6.0679955"
                 id="tspan3132">+</tspan>
            </text>
          </g>
        </g>
      </g>
      <g
         id="g4805">
        <g
           id="g4766">
          <g
             id="g4719">
            <path
               id="path3140"
               style="fill:#0000ff;fill-opacity:1;fill-rule:nonzero;stroke:none"
               d="m 501.30799,245.38151 c -12.085,-12.44624 -32.58875,-13.20212 -45.79625,-1.69387 -13.2075,11.504 -14.11625,30.9175 -2.03125,43.35887 12.085,12.44151 32.5925,13.20363 45.79625,1.69538 13.2075,-11.50538 14.12125,-30.919 2.03125,-43.36038 z"
               inkscape:connector-curvature="0" />
            <g
               transform="matrix(0.06687838,-0.0582635,-0.06152312,-0.063335,151.91799,348.43914)"
               id="g3142">
              <path
                 id="path3144"
                 style="fill:none;stroke:#0000ff;stroke-width:25.52230072;stroke-linecap:round;stroke-linejoin:round;stroke-miterlimit:4;stroke-opacity:1;stroke-dasharray:none"
                 d="m 3640.4,-1721.72 c 0.04,196.48 -160.04,355.71 -357.57,355.69 -197.46,0.01 -357.55,-159.25 -357.55,-355.67 -0.02,-196.44 160.09,-355.74 357.55,-355.68 197.47,-0.04 357.61,159.19 357.57,355.66 z"
                 inkscape:connector-curvature="0" />
            </g>
            <g
               transform="matrix(1.25,0,0,-1.25,151.91799,348.43914)"
               id="g3146">
              <text
                 id="text3148"
                 transform="matrix(1,0,0,-0.94701454,247.777,58.4031)">
                <tspan
                   id="tspan3150"
                   y="0"
                   x="0"
                   style="font-size:15.16988373px;font-variant:normal;font-weight:bold;writing-mode:lr-tb;fill:#000000;fill-opacity:1;fill-rule:nonzero;stroke:none;font-family:DejaVu Sans;-inkscape-font-specification:DejaVuSans-Bold">H</tspan>
                <tspan
                   id="tspan3152"
                   y="-6.0679955"
                   x="12.710576"
                   style="font-size:15.16988373px;font-variant:normal;font-weight:bold;writing-mode:lr-tb;fill:#000000;fill-opacity:1;fill-rule:nonzero;stroke:none;font-family:DejaVu Sans;-inkscape-font-specification:DejaVuSans-Bold">+</tspan>
              </text>
            </g>
          </g>
        </g>
      </g>
      <path
         inkscape:connector-curvature="0"
         inkscape:original-d="m 353.55339,238.17924 c 0,-89.90359 0,-127.27923 0,-127.27923"
         inkscape:path-effect="#path-effect3489-1"
         id="path3487-3"
         d="m 353.55339,238.17924 0,-127.27923"
         style="fill:none;stroke:#000000;stroke-width:1px;stroke-linecap:butt;stroke-linejoin:miter;stroke-opacity:1;marker-end:url(#Arrow1Lend)" />
      <path
         inkscape:connector-curvature="0"
         inkscape:original-d="m 429.31483,169.48886 c 0,-89.90358 0,-127.279227 0,-127.279227"
         inkscape:path-effect="#path-effect3489-9"
         id="path3487-1"
         d="m 429.31483,169.48886 0,-127.279227"
         style="fill:none;stroke:#000000;stroke-width:1px;stroke-linecap:butt;stroke-linejoin:miter;stroke-opacity:1;marker-end:url(#Arrow1Lend)" />
    </g>
  </g>
</svg>
